<svg width="24" height="24" viewBox="0 0 24 24" fill="none" xmlns="http://www.w3.org/2000/svg">
<path d="M11.4004 18.4238H10.6504L10.5029 18.4385C10.3589 18.4673 10.2256 18.5382 10.1201 18.6436L10.0264 18.7578C9.94477 18.8801 9.90039 19.0246 9.90039 19.1738L9.91406 19.3203C9.94281 19.4647 10.0145 19.5985 10.1201 19.7041L10.2344 19.7979C10.3158 19.8521 10.407 19.89 10.5029 19.9092L10.6504 19.9238M11.4004 18.4238L10.6494 19.1738H10.6504M11.4004 18.4238L10.6504 19.1729V19.1738M11.4004 18.4238H12.9004M10.6504 19.1738V19.9238M10.6504 19.1738L11.3994 19.9238M10.6504 19.1738V19.9238M10.6504 19.1738L11.3994 19.9238M10.6504 19.9238H11.3994M11.3994 19.9238L12.9004 18.4238M11.3994 19.9238H12.9951M11.3994 19.9238L12.9004 18.4238M13.3154 18.4238H13.6504M13.3154 18.4238L12.9951 19.9238M13.3154 18.4238H12.9004M13.3154 18.4238L12.9951 19.9238M13.6504 18.4238V19.9238M13.6504 18.4238V19.9238M13.6504 18.4238H17.4004M13.6504 19.9238H12.9951M13.6504 19.9238H15.8984M21.1484 19.1738V19.9238M21.1484 19.1738L20.3984 19.9238M21.1484 19.1738V19.9238M21.1484 19.1738L20.3984 19.9238M21.1484 19.9238H20.3984M21.1484 19.9238L21.1504 19.9229C21.3486 19.9224 21.5385 19.8443 21.6787 19.7041C21.7843 19.5985 21.855 19.4646 21.8838 19.3203L21.8984 19.1738C21.8984 18.9749 21.8194 18.7842 21.6787 18.6436C21.5385 18.5034 21.3486 18.4243 21.1504 18.4238H18.8633M20.3984 19.9238H19.1514M6.14941 19.1543L5.70605 19.7461L5.7002 19.7539M6.14941 19.1543L6.14648 19.166L5.72363 19.7695M6.14941 19.1543V19.1523L6.14844 19.1514M6.14941 19.1543L5.7002 19.7539M5.72363 19.7695L5.7002 19.7539M5.72363 19.7695H5.72461M5.72363 19.7695H5.72461M5.7002 19.7539L0.299805 15.7041C0.221107 15.645 0.154627 15.571 0.104492 15.4863C0.0795188 15.4441 0.0591913 15.3995 0.0429688 15.3535L0.0078125 15.21C-0.00643581 15.1099 -0.00085386 15.009 0.0244141 14.9131M19.1514 19.9238L18.8633 18.4238M19.1514 19.9238H18.9004M19.1514 19.9238L18.8633 18.4238M18.8633 18.4238H17.4004M18.9004 19.9238L17.4004 18.4238M18.9004 19.9238H16.6504M18.9004 19.9238L17.4004 18.4238M16.6504 19.9238V19.1719M16.6504 19.9238H15.8984M16.6504 19.9238V19.1719M16.6504 19.1719L15.8984 19.9238M16.6504 19.1719L15.8984 19.9238M6.54883 19.7891L6.48242 19.8262C6.41513 19.8595 6.34297 19.8826 6.26855 19.8945C6.19405 19.9065 6.11837 19.9071 6.04395 19.8965L5.96973 19.8828M6.54883 19.7891L6.15234 19.1582M6.54883 19.7891C6.63392 19.7356 6.70715 19.6654 6.76465 19.583L16.834 5.19824C16.8789 5.13796 16.9154 5.07157 16.9404 5.00098L16.9619 4.92871M6.54883 19.7891L6.15234 19.1582M5.96973 19.8828L6.14551 19.168M5.96973 19.8828C5.88147 19.861 5.79927 19.8211 5.72461 19.7695M5.96973 19.8828L6.14551 19.168M6.14551 19.168L6.15234 19.1582M6.14551 19.168L5.72461 19.7695M6.14551 19.168L6.15234 19.1582M6.14551 19.168L6.14941 19.1533M6.15234 19.1582L6.15039 19.1543M6.15234 19.1582L6.1543 19.1553H6.15332L6.23145 19.0459L6.14941 19.1533M6.15234 19.1582L6.15039 19.1543M6.15234 19.1582L6.23926 19.0332L16.8408 4.89844M6.15039 19.1543L6.14941 19.1533M6.15039 19.1543L6.14941 19.1533M17.3984 15.4238H16.6504M17.3984 15.4238L16.6504 14.6758M17.3984 15.4238H18.2861M17.3984 15.4238L16.6504 14.6758M16.6504 15.4238V14.6758M16.6504 15.4238V14.6758M16.6504 15.4238H14.3994L15.8984 13.9238M21.1484 14.6738V15.4238M21.1484 14.6738L20.3984 15.4238M21.1484 14.6738V14.6719V14.6729V15.4238M21.1484 14.6738L20.3984 15.4238M21.1484 15.4238H20.3984M21.1484 15.4238L21.1504 15.4229C21.3486 15.4224 21.5385 15.3443 21.6787 15.2041C21.7843 15.0985 21.855 14.9646 21.8838 14.8203L21.8984 14.6738C21.8984 14.4749 21.8194 14.2842 21.6787 14.1436C21.5385 14.0034 21.3486 13.9243 21.1504 13.9238H17.998M20.3984 15.4238H18.2861M0.617188 15.2793L0.610352 15.2891M0.617188 15.2793L0.541992 15.2266M0.617188 15.2793L0.541992 15.2266M0.617188 15.2793L0.749023 15.1035M0.610352 15.2891L0.530273 15.2334M0.610352 15.2891L0.412109 15.1514M0.610352 15.2891L0.749023 15.1035M0.530273 15.2334L0.541992 15.2266M0.530273 15.2334L0.541992 15.2266M0.530273 15.2334L0.412109 15.1514M0.541992 15.2266L0.749023 15.1035M0.541992 15.2266L0.430664 15.1494M0.541992 15.2266L0.749023 15.1035M0.541992 15.2266L0.430664 15.1494M0.749023 15.1035L1.08203 14.6602M0.749023 15.1035H0.75M0.749023 15.1035V15.1045L0.75 15.1035M0.749023 15.1035L1.08203 14.6602M0.412109 15.1514L0.430664 15.1494M0.412109 15.1514L0.430664 15.1494M1.08203 14.6602L1.07324 14.6738L0.75 15.1035M1.08203 14.6602L1.27344 14.7939M1.08203 14.6602L0.75 15.1035M1.08203 14.6602L0.655273 14.3613C0.651537 14.3618 0.647289 14.3618 0.643555 14.3623L0.5 14.3975C0.361662 14.4464 0.239769 14.5352 0.150391 14.6543L0.138672 14.6738C0.092184 14.7398 0.0571903 14.8116 0.0341797 14.8877M1.27344 14.7939L0.75 15.1035M1.27344 14.7939L0.75 15.1035M1.27344 14.7939L5.09082 17.4658M0.0488281 14.8975L0.0244141 14.9131M0.0488281 14.8975L0.0341797 14.8877M0.0488281 14.8975L0.0244141 14.9131M0.0488281 14.8975L0.0341797 14.8877M0.0244141 14.9131C0.0267177 14.9043 0.031561 14.8964 0.0341797 14.8877M18.2861 15.4238L17.998 13.9238M18.2861 15.4238L17.998 13.9238M17.998 13.9238H15.8984M15.8984 13.9238H14.4004M15.8984 13.9238L14.3994 15.4229L14.4004 15.4238H13.9561M13.9561 15.4238L14.2412 14.082M13.9561 15.4238L14.2412 14.082M13.9561 15.4238H13.6504M14.2412 14.082L14.4004 13.9238M14.2412 14.082L13.6494 14.6738M14.2412 14.082L14.2754 13.9238M14.2412 14.082L13.6494 14.6738M14.2412 14.082L14.2754 13.9238M14.2412 14.082L14.4004 13.9238M14.4004 13.9238H14.2754M13.6504 15.4238V14.6738M13.6504 15.4238L13.5029 15.4092C13.407 15.39 13.3158 15.3521 13.2344 15.2979L13.1201 15.2041C13.0145 15.0985 12.9428 14.9647 12.9141 14.8203L12.9004 14.6738C12.9004 14.5246 12.9448 14.3801 13.0264 14.2578L13.1201 14.1436C13.2256 14.0382 13.3589 13.9673 13.5029 13.9385L13.6504 13.9238H14.2754M13.6504 15.4238V14.6738M13.6504 14.6738H13.6494M13.6504 14.6738H13.6494M16.8408 4.89844L16.9619 4.92871M16.8408 4.89844L16.9619 4.92871M16.8408 4.89844L16.9814 4.71191C16.9851 4.78462 16.9793 4.85772 16.9619 4.92871M9.90332 13.7959L6.23242 19.043L6.15039 19.1523L6.14844 19.1514M9.90332 13.7959L9.11426 13.9082M9.90332 13.7959L6.24316 19.0293L15.9199 6.12109M9.90332 13.7959L9.11426 13.9082M6.14844 19.1514L5.09082 17.4658M6.14844 19.1514L5.09082 17.4658M5.09082 17.4658L5.98047 18.0889L9.11426 13.9082M9.11426 13.9082L14.1836 7.14844M17.3984 10.9238H16.6504M17.3984 10.9238L16.6504 10.1758M17.3984 10.9238H17.4004M17.3984 10.9238L16.6504 10.1758M16.6504 10.9238V10.1758M16.6504 10.9238V10.1758M16.6504 10.9238L16.5029 10.9092C16.407 10.89 16.3158 10.8521 16.2344 10.7979L16.1201 10.7041C16.0145 10.5985 15.9428 10.4647 15.9141 10.3203L15.9004 10.1738C15.9004 9.97529 15.979 9.78511 16.1191 9.64453L16.1201 9.64355C16.2256 9.53819 16.3589 9.46729 16.5029 9.43848L16.6504 9.42383H17.1328M17.4209 10.9238H17.4004M17.4209 10.9238L17.417 10.9062M17.4209 10.9238H18.9004M17.4209 10.9238L17.417 10.9062M17.4004 10.9238L17.417 10.9062M17.4004 10.9238L17.3994 10.9229L17.417 10.9062M21.1484 10.9238H20.4004M21.1484 10.9238V10.1758M21.1484 10.9238H21.1504M21.1484 10.9238V10.1758M20.4004 10.9238L21.1484 10.1758M20.4004 10.9238L21.1484 10.1758M20.4004 10.9238H20.3691L19.7793 10.0439M21.1504 9.42383L21.2969 9.43848C21.4411 9.46728 21.5752 9.53804 21.6807 9.64355C21.8212 9.78419 21.9004 9.97502 21.9004 10.1738L21.8857 10.3203C21.857 10.4646 21.7862 10.5985 21.6807 10.7041L21.5664 10.7979C21.4848 10.8523 21.3931 10.89 21.2969 10.9092L21.1504 10.9238M21.1504 9.42383V10.9238M21.1504 9.42383H20.4004M21.1504 9.42383V10.9238M19.7793 10.0439L20.4004 9.42383M19.7793 10.0439L18.9004 10.9238M19.7793 10.0439L20.3682 10.9238H18.9004M20.4004 9.42383H17.4004M20.4004 9.42383L18.9004 10.9238M17.1328 9.42383L17.1748 9.64844M17.1328 9.42383L17.1748 9.64844M17.1328 9.42383H17.4004M17.1748 9.64844L16.6494 10.1729M17.1748 9.64844L17.4004 9.42383M16.6494 10.1729L16.6504 10.1738M16.6494 10.1729L16.6504 10.1738M16.6494 10.1729H16.6504M16.6504 10.1738V10.1729M16.6504 10.1738V10.1729M16.6504 10.1729L17.4004 9.42383M16.0225 4.69824L16.2324 4.74902M16.0225 4.69824L14.1836 7.14844M16.0225 4.69824L16.2324 4.74902M16.0225 4.69824L16.1816 4.48438M16.2324 4.74902V4.75M16.2324 4.74902V4.75M16.2324 4.74902L16.332 4.28516M16.2324 4.74902L16.1816 4.48438M16.2324 4.74902L16.1816 4.48438M16.2324 4.74902L16.332 4.28516M16.2324 4.75H16.2334L16.8369 4.89746M16.2324 4.75L16.8369 4.89746M16.8369 4.89746L15.9199 6.12109M16.8369 4.89746L16.9814 4.70605C16.98 4.68092 16.9776 4.65581 16.9736 4.63086C16.9577 4.53174 16.9215 4.43662 16.8682 4.35156C16.8149 4.26662 16.7452 4.19324 16.6631 4.13574C16.6142 4.10155 16.5611 4.07435 16.5059 4.05273L16.332 4.28516M15.9199 6.12109L14.8164 6.77441M15.9199 6.12109L14.8164 6.77441M14.8164 6.77441H14.8154M14.8164 6.77441H14.8154M14.8154 6.77441L14.1836 7.14844M14.8154 6.77441L14.1836 7.14844M16.332 4.28516L16.1816 4.48438" fill="#572908" stroke="black" stroke-width="50"/>
<path d="M12.4004 18.4238H11.6504L11.5029 18.4385C11.3589 18.4673 11.2256 18.5382 11.1201 18.6436L11.0264 18.7578C10.9448 18.8801 10.9004 19.0246 10.9004 19.1738L10.9141 19.3203C10.9428 19.4647 11.0145 19.5985 11.1201 19.7041L11.2344 19.7979C11.3158 19.8521 11.407 19.89 11.5029 19.9092L11.6504 19.9238M12.4004 18.4238L11.6494 19.1738H11.6504M12.4004 18.4238L11.6504 19.1729V19.1738M12.4004 18.4238H13.9004M11.6504 19.1738V19.9238M11.6504 19.1738L12.3994 19.9238M11.6504 19.1738V19.9238M11.6504 19.1738L12.3994 19.9238M11.6504 19.9238H12.3994M12.3994 19.9238L13.9004 18.4238M12.3994 19.9238H13.9951M12.3994 19.9238L13.9004 18.4238M14.3154 18.4238H14.6504M14.3154 18.4238L13.9951 19.9238M14.3154 18.4238H13.9004M14.3154 18.4238L13.9951 19.9238M14.6504 18.4238V19.9238M14.6504 18.4238V19.9238M14.6504 18.4238H18.4004M14.6504 19.9238H13.9951M14.6504 19.9238H16.8984M22.1484 19.1738V19.9238M22.1484 19.1738L21.3984 19.9238M22.1484 19.1738V19.9238M22.1484 19.1738L21.3984 19.9238M22.1484 19.9238H21.3984M22.1484 19.9238L22.1504 19.9229C22.3486 19.9224 22.5385 19.8443 22.6787 19.7041C22.7843 19.5985 22.855 19.4646 22.8838 19.3203L22.8984 19.1738C22.8984 18.9749 22.8194 18.7842 22.6787 18.6436C22.5385 18.5034 22.3486 18.4243 22.1504 18.4238H19.8633M21.3984 19.9238H20.1514M7.14941 19.1543L6.70605 19.7461L6.7002 19.7539M7.14941 19.1543L7.14648 19.166L6.72363 19.7695M7.14941 19.1543V19.1523L7.14844 19.1514M7.14941 19.1543L6.7002 19.7539M6.72363 19.7695L6.7002 19.7539M6.72363 19.7695H6.72461M6.72363 19.7695H6.72461M6.7002 19.7539L1.2998 15.7041C1.22111 15.645 1.15463 15.571 1.10449 15.4863C1.07952 15.4441 1.05919 15.3995 1.04297 15.3535L1.00781 15.21C0.993564 15.1099 0.999146 15.009 1.02441 14.9131M20.1514 19.9238L19.8633 18.4238M20.1514 19.9238H19.9004M20.1514 19.9238L19.8633 18.4238M19.8633 18.4238H18.4004M19.9004 19.9238L18.4004 18.4238M19.9004 19.9238H17.6504M19.9004 19.9238L18.4004 18.4238M17.6504 19.9238V19.1719M17.6504 19.9238H16.8984M17.6504 19.9238V19.1719M17.6504 19.1719L16.8984 19.9238M17.6504 19.1719L16.8984 19.9238M7.54883 19.7891L7.48242 19.8262C7.41513 19.8595 7.34297 19.8826 7.26855 19.8945C7.19405 19.9065 7.11837 19.9071 7.04395 19.8965L6.96973 19.8828M7.54883 19.7891L7.15234 19.1582M7.54883 19.7891C7.63392 19.7356 7.70715 19.6654 7.76465 19.583L17.834 5.19824C17.8789 5.13796 17.9154 5.07157 17.9404 5.00098L17.9619 4.92871M7.54883 19.7891L7.15234 19.1582M6.96973 19.8828L7.14551 19.168M6.96973 19.8828C6.88147 19.861 6.79927 19.8211 6.72461 19.7695M6.96973 19.8828L7.14551 19.168M7.14551 19.168L7.15234 19.1582M7.14551 19.168L6.72461 19.7695M7.14551 19.168L7.15234 19.1582M7.14551 19.168L7.14941 19.1533M7.15234 19.1582L7.15039 19.1543M7.15234 19.1582L7.1543 19.1553H7.15332L7.23145 19.0459L7.14941 19.1533M7.15234 19.1582L7.15039 19.1543M7.15234 19.1582L7.23926 19.0332L17.8408 4.89844M7.15039 19.1543L7.14941 19.1533M7.15039 19.1543L7.14941 19.1533M18.3984 15.4238H17.6504M18.3984 15.4238L17.6504 14.6758M18.3984 15.4238H19.2861M18.3984 15.4238L17.6504 14.6758M17.6504 15.4238V14.6758M17.6504 15.4238V14.6758M17.6504 15.4238H15.3994L16.8984 13.9238M22.1484 14.6738V15.4238M22.1484 14.6738L21.3984 15.4238M22.1484 14.6738V14.6719V14.6729V15.4238M22.1484 14.6738L21.3984 15.4238M22.1484 15.4238H21.3984M22.1484 15.4238L22.1504 15.4229C22.3486 15.4224 22.5385 15.3443 22.6787 15.2041C22.7843 15.0985 22.855 14.9646 22.8838 14.8203L22.8984 14.6738C22.8984 14.4749 22.8194 14.2842 22.6787 14.1436C22.5385 14.0034 22.3486 13.9243 22.1504 13.9238H18.998M21.3984 15.4238H19.2861M1.61719 15.2793L1.61035 15.2891M1.61719 15.2793L1.54199 15.2266M1.61719 15.2793L1.54199 15.2266M1.61719 15.2793L1.74902 15.1035M1.61035 15.2891L1.53027 15.2334M1.61035 15.2891L1.41211 15.1514M1.61035 15.2891L1.74902 15.1035M1.53027 15.2334L1.54199 15.2266M1.53027 15.2334L1.54199 15.2266M1.53027 15.2334L1.41211 15.1514M1.54199 15.2266L1.74902 15.1035M1.54199 15.2266L1.43066 15.1494M1.54199 15.2266L1.74902 15.1035M1.54199 15.2266L1.43066 15.1494M1.74902 15.1035L2.08203 14.6602M1.74902 15.1035H1.75M1.74902 15.1035V15.1045L1.75 15.1035M1.74902 15.1035L2.08203 14.6602M1.41211 15.1514L1.43066 15.1494M1.41211 15.1514L1.43066 15.1494M2.08203 14.6602L2.07324 14.6738L1.75 15.1035M2.08203 14.6602L2.27344 14.7939M2.08203 14.6602L1.75 15.1035M2.08203 14.6602L1.65527 14.3613C1.65154 14.3618 1.64729 14.3618 1.64355 14.3623L1.5 14.3975C1.36166 14.4464 1.23977 14.5352 1.15039 14.6543L1.13867 14.6738C1.09218 14.7398 1.05719 14.8116 1.03418 14.8877M2.27344 14.7939L1.75 15.1035M2.27344 14.7939L1.75 15.1035M2.27344 14.7939L6.09082 17.4658M1.04883 14.8975L1.02441 14.9131M1.04883 14.8975L1.03418 14.8877M1.04883 14.8975L1.02441 14.9131M1.04883 14.8975L1.03418 14.8877M1.02441 14.9131C1.02672 14.9043 1.03156 14.8964 1.03418 14.8877M19.2861 15.4238L18.998 13.9238M19.2861 15.4238L18.998 13.9238M18.998 13.9238H16.8984M16.8984 13.9238H15.4004M16.8984 13.9238L15.3994 15.4229L15.4004 15.4238H14.9561M14.9561 15.4238L15.2412 14.082M14.9561 15.4238L15.2412 14.082M14.9561 15.4238H14.6504M15.2412 14.082L15.4004 13.9238M15.2412 14.082L14.6494 14.6738M15.2412 14.082L15.2754 13.9238M15.2412 14.082L14.6494 14.6738M15.2412 14.082L15.2754 13.9238M15.2412 14.082L15.4004 13.9238M15.4004 13.9238H15.2754M14.6504 15.4238V14.6738M14.6504 15.4238L14.5029 15.4092C14.407 15.39 14.3158 15.3521 14.2344 15.2979L14.1201 15.2041C14.0145 15.0985 13.9428 14.9647 13.9141 14.8203L13.9004 14.6738C13.9004 14.5246 13.9448 14.3801 14.0264 14.2578L14.1201 14.1436C14.2256 14.0382 14.3589 13.9673 14.5029 13.9385L14.6504 13.9238H15.2754M14.6504 15.4238V14.6738M14.6504 14.6738H14.6494M14.6504 14.6738H14.6494M17.8408 4.89844L17.9619 4.92871M17.8408 4.89844L17.9619 4.92871M17.8408 4.89844L17.9814 4.71191C17.9851 4.78462 17.9793 4.85772 17.9619 4.92871M10.9033 13.7959L7.23242 19.043L7.15039 19.1523L7.14844 19.1514M10.9033 13.7959L10.1143 13.9082M10.9033 13.7959L7.24316 19.0293L16.9199 6.12109M10.9033 13.7959L10.1143 13.9082M7.14844 19.1514L6.09082 17.4658M7.14844 19.1514L6.09082 17.4658M6.09082 17.4658L6.98047 18.0889L10.1143 13.9082M10.1143 13.9082L15.1836 7.14844M18.3984 10.9238H17.6504M18.3984 10.9238L17.6504 10.1758M18.3984 10.9238H18.4004M18.3984 10.9238L17.6504 10.1758M17.6504 10.9238V10.1758M17.6504 10.9238V10.1758M17.6504 10.9238L17.5029 10.9092C17.407 10.89 17.3158 10.8521 17.2344 10.7979L17.1201 10.7041C17.0145 10.5985 16.9428 10.4647 16.9141 10.3203L16.9004 10.1738C16.9004 9.97529 16.979 9.78511 17.1191 9.64453L17.1201 9.64355C17.2256 9.53819 17.3589 9.46729 17.5029 9.43848L17.6504 9.42383H18.1328M18.4209 10.9238H18.4004M18.4209 10.9238L18.417 10.9062M18.4209 10.9238H19.9004M18.4209 10.9238L18.417 10.9062M18.4004 10.9238L18.417 10.9062M18.4004 10.9238L18.3994 10.9229L18.417 10.9062M22.1484 10.9238H21.4004M22.1484 10.9238V10.1758M22.1484 10.9238H22.1504M22.1484 10.9238V10.1758M21.4004 10.9238L22.1484 10.1758M21.4004 10.9238L22.1484 10.1758M21.4004 10.9238H21.3691L20.7793 10.0439M22.1504 9.42383L22.2969 9.43848C22.4411 9.46728 22.5752 9.53804 22.6807 9.64355C22.8212 9.78419 22.9004 9.97502 22.9004 10.1738L22.8857 10.3203C22.857 10.4646 22.7862 10.5985 22.6807 10.7041L22.5664 10.7979C22.4848 10.8523 22.3931 10.89 22.2969 10.9092L22.1504 10.9238M22.1504 9.42383V10.9238M22.1504 9.42383H21.4004M22.1504 9.42383V10.9238M20.7793 10.0439L21.4004 9.42383M20.7793 10.0439L19.9004 10.9238M20.7793 10.0439L21.3682 10.9238H19.9004M21.4004 9.42383H18.4004M21.4004 9.42383L19.9004 10.9238M18.1328 9.42383L18.1748 9.64844M18.1328 9.42383L18.1748 9.64844M18.1328 9.42383H18.4004M18.1748 9.64844L17.6494 10.1729M18.1748 9.64844L18.4004 9.42383M17.6494 10.1729L17.6504 10.1738M17.6494 10.1729L17.6504 10.1738M17.6494 10.1729H17.6504M17.6504 10.1738V10.1729M17.6504 10.1738V10.1729M17.6504 10.1729L18.4004 9.42383M17.0225 4.69824L17.2324 4.74902M17.0225 4.69824L15.1836 7.14844M17.0225 4.69824L17.2324 4.74902M17.0225 4.69824L17.1816 4.48438M17.2324 4.74902V4.75M17.2324 4.74902V4.75M17.2324 4.74902L17.332 4.28516M17.2324 4.74902L17.1816 4.48438M17.2324 4.74902L17.1816 4.48438M17.2324 4.74902L17.332 4.28516M17.2324 4.75H17.2334L17.8369 4.89746M17.2324 4.75L17.8369 4.89746M17.8369 4.89746L16.9199 6.12109M17.8369 4.89746L17.9814 4.70605C17.98 4.68092 17.9776 4.65581 17.9736 4.63086C17.9577 4.53174 17.9215 4.43662 17.8682 4.35156C17.8149 4.26662 17.7452 4.19324 17.6631 4.13574C17.6142 4.10155 17.5611 4.07435 17.5059 4.05273L17.332 4.28516M16.9199 6.12109L15.8164 6.77441M16.9199 6.12109L15.8164 6.77441M15.8164 6.77441H15.8154M15.8164 6.77441H15.8154M15.8154 6.77441L15.1836 7.14844M15.8154 6.77441L15.1836 7.14844M17.332 4.28516L17.1816 4.48438" fill="#572908" stroke="black" stroke-width="50"/>
<path d="M11.4004 18.4238H10.6504L10.5029 18.4385C10.3589 18.4673 10.2256 18.5382 10.1201 18.6436L10.0264 18.7578C9.94477 18.8801 9.90039 19.0246 9.90039 19.1738L9.91406 19.3203C9.94281 19.4647 10.0145 19.5985 10.1201 19.7041L10.2344 19.7979C10.3158 19.8521 10.407 19.89 10.5029 19.9092L10.6504 19.9238M11.4004 18.4238L10.6494 19.1738H10.6504M11.4004 18.4238L10.6504 19.1729V19.1738M11.4004 18.4238H12.9004M10.6504 19.1738V19.9238M10.6504 19.1738L11.3994 19.9238M10.6504 19.1738V19.9238M10.6504 19.1738L11.3994 19.9238M10.6504 19.9238H11.3994M11.3994 19.9238L12.9004 18.4238M11.3994 19.9238H12.9951M11.3994 19.9238L12.9004 18.4238M13.3154 18.4238H13.6504M13.3154 18.4238L12.9951 19.9238M13.3154 18.4238H12.9004M13.3154 18.4238L12.9951 19.9238M13.6504 18.4238V19.9238M13.6504 18.4238V19.9238M13.6504 18.4238H17.4004M13.6504 19.9238H12.9951M13.6504 19.9238H15.8984M21.1484 19.1738V19.9238M21.1484 19.1738L20.3984 19.9238M21.1484 19.1738V19.9238M21.1484 19.1738L20.3984 19.9238M21.1484 19.9238H20.3984M21.1484 19.9238L21.1504 19.9229C21.3486 19.9224 21.5385 19.8443 21.6787 19.7041C21.7843 19.5985 21.855 19.4646 21.8838 19.3203L21.8984 19.1738C21.8984 18.9749 21.8194 18.7842 21.6787 18.6436C21.5385 18.5034 21.3486 18.4243 21.1504 18.4238H18.8633M20.3984 19.9238H19.1514M6.14941 19.1543L5.70605 19.7461L5.7002 19.7539M6.14941 19.1543L6.14648 19.166L5.72363 19.7695M6.14941 19.1543V19.1523L6.14844 19.1514M6.14941 19.1543L5.7002 19.7539M5.72363 19.7695L5.7002 19.7539M5.72363 19.7695H5.72461M5.72363 19.7695H5.72461M5.7002 19.7539L0.299805 15.7041C0.221107 15.645 0.154627 15.571 0.104492 15.4863C0.0795188 15.4441 0.0591913 15.3995 0.0429688 15.3535L0.0078125 15.21C-0.00643581 15.1099 -0.00085386 15.009 0.0244141 14.9131M19.1514 19.9238L18.8633 18.4238M19.1514 19.9238H18.9004M19.1514 19.9238L18.8633 18.4238M18.8633 18.4238H17.4004M18.9004 19.9238L17.4004 18.4238M18.9004 19.9238H16.6504M18.9004 19.9238L17.4004 18.4238M16.6504 19.9238V19.1719M16.6504 19.9238H15.8984M16.6504 19.9238V19.1719M16.6504 19.1719L15.8984 19.9238M16.6504 19.1719L15.8984 19.9238M6.54883 19.7891L6.48242 19.8262C6.41513 19.8595 6.34297 19.8826 6.26855 19.8945C6.19405 19.9065 6.11837 19.9071 6.04395 19.8965L5.96973 19.8828M6.54883 19.7891L6.15234 19.1582M6.54883 19.7891C6.63392 19.7356 6.70715 19.6654 6.76465 19.583L16.834 5.19824C16.8789 5.13796 16.9154 5.07157 16.9404 5.00098L16.9619 4.92871M6.54883 19.7891L6.15234 19.1582M5.96973 19.8828L6.14551 19.168M5.96973 19.8828C5.88147 19.861 5.79927 19.8211 5.72461 19.7695M5.96973 19.8828L6.14551 19.168M6.14551 19.168L6.15234 19.1582M6.14551 19.168L5.72461 19.7695M6.14551 19.168L6.15234 19.1582M6.14551 19.168L6.14941 19.1533M6.15234 19.1582L6.15039 19.1543M6.15234 19.1582L6.1543 19.1553H6.15332L6.23145 19.0459L6.14941 19.1533M6.15234 19.1582L6.15039 19.1543M6.15234 19.1582L6.23926 19.0332L16.8408 4.89844M6.15039 19.1543L6.14941 19.1533M6.15039 19.1543L6.14941 19.1533M17.3984 15.4238H16.6504M17.3984 15.4238L16.6504 14.6758M17.3984 15.4238H18.2861M17.3984 15.4238L16.6504 14.6758M16.6504 15.4238V14.6758M16.6504 15.4238V14.6758M16.6504 15.4238H14.3994L15.8984 13.9238M21.1484 14.6738V15.4238M21.1484 14.6738L20.3984 15.4238M21.1484 14.6738V14.6719V14.6729V15.4238M21.1484 14.6738L20.3984 15.4238M21.1484 15.4238H20.3984M21.1484 15.4238L21.1504 15.4229C21.3486 15.4224 21.5385 15.3443 21.6787 15.2041C21.7843 15.0985 21.855 14.9646 21.8838 14.8203L21.8984 14.6738C21.8984 14.4749 21.8194 14.2842 21.6787 14.1436C21.5385 14.0034 21.3486 13.9243 21.1504 13.9238H17.998M20.3984 15.4238H18.2861M0.617188 15.2793L0.610352 15.2891M0.617188 15.2793L0.541992 15.2266M0.617188 15.2793L0.541992 15.2266M0.617188 15.2793L0.749023 15.1035M0.610352 15.2891L0.530273 15.2334M0.610352 15.2891L0.412109 15.1514M0.610352 15.2891L0.749023 15.1035M0.530273 15.2334L0.541992 15.2266M0.530273 15.2334L0.541992 15.2266M0.530273 15.2334L0.412109 15.1514M0.541992 15.2266L0.749023 15.1035M0.541992 15.2266L0.430664 15.1494M0.541992 15.2266L0.749023 15.1035M0.541992 15.2266L0.430664 15.1494M0.749023 15.1035L1.08203 14.6602M0.749023 15.1035H0.75M0.749023 15.1035V15.1045L0.75 15.1035M0.749023 15.1035L1.08203 14.6602M0.412109 15.1514L0.430664 15.1494M0.412109 15.1514L0.430664 15.1494M1.08203 14.6602L1.07324 14.6738L0.75 15.1035M1.08203 14.6602L1.27344 14.7939M1.08203 14.6602L0.75 15.1035M1.08203 14.6602L0.655273 14.3613C0.651537 14.3618 0.647289 14.3618 0.643555 14.3623L0.5 14.3975C0.361662 14.4464 0.239769 14.5352 0.150391 14.6543L0.138672 14.6738C0.092184 14.7398 0.0571903 14.8116 0.0341797 14.8877M1.27344 14.7939L0.75 15.1035M1.27344 14.7939L0.75 15.1035M1.27344 14.7939L5.09082 17.4658M0.0488281 14.8975L0.0244141 14.9131M0.0488281 14.8975L0.0341797 14.8877M0.0488281 14.8975L0.0244141 14.9131M0.0488281 14.8975L0.0341797 14.8877M0.0244141 14.9131C0.0267177 14.9043 0.031561 14.8964 0.0341797 14.8877M18.2861 15.4238L17.998 13.9238M18.2861 15.4238L17.998 13.9238M17.998 13.9238H15.8984M15.8984 13.9238H14.4004M15.8984 13.9238L14.3994 15.4229L14.4004 15.4238H13.9561M13.9561 15.4238L14.2412 14.082M13.9561 15.4238L14.2412 14.082M13.9561 15.4238H13.6504M14.2412 14.082L14.4004 13.9238M14.2412 14.082L13.6494 14.6738M14.2412 14.082L14.2754 13.9238M14.2412 14.082L13.6494 14.6738M14.2412 14.082L14.2754 13.9238M14.2412 14.082L14.4004 13.9238M14.4004 13.9238H14.2754M13.6504 15.4238V14.6738M13.6504 15.4238L13.5029 15.4092C13.407 15.39 13.3158 15.3521 13.2344 15.2979L13.1201 15.2041C13.0145 15.0985 12.9428 14.9647 12.9141 14.8203L12.9004 14.6738C12.9004 14.5246 12.9448 14.3801 13.0264 14.2578L13.1201 14.1436C13.2256 14.0382 13.3589 13.9673 13.5029 13.9385L13.6504 13.9238H14.2754M13.6504 15.4238V14.6738M13.6504 14.6738H13.6494M13.6504 14.6738H13.6494M16.8408 4.89844L16.9619 4.92871M16.8408 4.89844L16.9619 4.92871M16.8408 4.89844L16.9814 4.71191C16.9851 4.78462 16.9793 4.85772 16.9619 4.92871M9.90332 13.7959L6.23242 19.043L6.15039 19.1523L6.14844 19.1514M9.90332 13.7959L9.11426 13.9082M9.90332 13.7959L6.24316 19.0293L15.9199 6.12109M9.90332 13.7959L9.11426 13.9082M6.14844 19.1514L5.09082 17.4658M6.14844 19.1514L5.09082 17.4658M5.09082 17.4658L5.98047 18.0889L9.11426 13.9082M9.11426 13.9082L14.1836 7.14844M17.3984 10.9238H16.6504M17.3984 10.9238L16.6504 10.1758M17.3984 10.9238H17.4004M17.3984 10.9238L16.6504 10.1758M16.6504 10.9238V10.1758M16.6504 10.9238V10.1758M16.6504 10.9238L16.5029 10.9092C16.407 10.89 16.3158 10.8521 16.2344 10.7979L16.1201 10.7041C16.0145 10.5985 15.9428 10.4647 15.9141 10.3203L15.9004 10.1738C15.9004 9.97529 15.979 9.78511 16.1191 9.64453L16.1201 9.64355C16.2256 9.53819 16.3589 9.46729 16.5029 9.43848L16.6504 9.42383H17.1328M17.4209 10.9238H17.4004M17.4209 10.9238L17.417 10.9062M17.4209 10.9238H18.9004M17.4209 10.9238L17.417 10.9062M17.4004 10.9238L17.417 10.9062M17.4004 10.9238L17.3994 10.9229L17.417 10.9062M21.1484 10.9238H20.4004M21.1484 10.9238V10.1758M21.1484 10.9238H21.1504M21.1484 10.9238V10.1758M20.4004 10.9238L21.1484 10.1758M20.4004 10.9238L21.1484 10.1758M20.4004 10.9238H20.3691L19.7793 10.0439M21.1504 9.42383L21.2969 9.43848C21.4411 9.46728 21.5752 9.53804 21.6807 9.64355C21.8212 9.78419 21.9004 9.97502 21.9004 10.1738L21.8857 10.3203C21.857 10.4646 21.7862 10.5985 21.6807 10.7041L21.5664 10.7979C21.4848 10.8523 21.3931 10.89 21.2969 10.9092L21.1504 10.9238M21.1504 9.42383V10.9238M21.1504 9.42383H20.4004M21.1504 9.42383V10.9238M19.7793 10.0439L20.4004 9.42383M19.7793 10.0439L18.9004 10.9238M19.7793 10.0439L20.3682 10.9238H18.9004M20.4004 9.42383H17.4004M20.4004 9.42383L18.9004 10.9238M17.1328 9.42383L17.1748 9.64844M17.1328 9.42383L17.1748 9.64844M17.1328 9.42383H17.4004M17.1748 9.64844L16.6494 10.1729M17.1748 9.64844L17.4004 9.42383M16.6494 10.1729L16.6504 10.1738M16.6494 10.1729L16.6504 10.1738M16.6494 10.1729H16.6504M16.6504 10.1738V10.1729M16.6504 10.1738V10.1729M16.6504 10.1729L17.4004 9.42383M16.0225 4.69824L16.2324 4.74902M16.0225 4.69824L14.1836 7.14844M16.0225 4.69824L16.2324 4.74902M16.0225 4.69824L16.1816 4.48438M16.2324 4.74902V4.75M16.2324 4.74902V4.75M16.2324 4.74902L16.332 4.28516M16.2324 4.74902L16.1816 4.48438M16.2324 4.74902L16.1816 4.48438M16.2324 4.74902L16.332 4.28516M16.2324 4.75H16.2334L16.8369 4.89746M16.2324 4.75L16.8369 4.89746M16.8369 4.89746L15.9199 6.12109M16.8369 4.89746L16.9814 4.70605C16.98 4.68092 16.9776 4.65581 16.9736 4.63086C16.9577 4.53174 16.9215 4.43662 16.8682 4.35156C16.8149 4.26662 16.7452 4.19324 16.6631 4.13574C16.6142 4.10155 16.5611 4.07435 16.5059 4.05273L16.332 4.28516M15.9199 6.12109L14.8164 6.77441M15.9199 6.12109L14.8164 6.77441M14.8164 6.77441H14.8154M14.8164 6.77441H14.8154M14.8154 6.77441L14.1836 7.14844M14.8154 6.77441L14.1836 7.14844M16.332 4.28516L16.1816 4.48438" fill="#572908" stroke="black" stroke-width="50"/>
</svg>
