<svg width="24" height="24" viewBox="0 0 24 24" fill="none" xmlns="http://www.w3.org/2000/svg">
<path fill-rule="evenodd" clip-rule="evenodd" d="M5.33999 8.4001C5.65825 8.4001 5.96347 8.27367 6.18852 8.04863C6.41356 7.82358 6.53999 7.51836 6.53999 7.2001C6.53999 6.88184 6.41356 6.57661 6.18852 6.35157C5.96347 6.12653 5.65825 6.0001 5.33999 6.0001C5.02173 6.0001 4.71651 6.12653 4.49146 6.35157C4.26642 6.57661 4.13999 6.88184 4.13999 7.2001C4.13999 7.51836 4.26642 7.82358 4.49146 8.04863C4.71651 8.27367 5.02173 8.4001 5.33999 8.4001ZM5.33999 10.8001C6.29477 10.8001 7.21044 10.4208 7.88557 9.74568C8.56071 9.07055 8.93999 8.15488 8.93999 7.2001C8.93999 6.24532 8.56071 5.32964 7.88557 4.65451C7.21044 3.97938 6.29477 3.6001 5.33999 3.6001C4.38521 3.6001 3.46954 3.97938 2.79441 4.65451C2.11927 5.32964 1.73999 6.24532 1.73999 7.2001C1.73999 8.15488 2.11927 9.07055 2.79441 9.74568C3.46954 10.4208 4.38521 10.8001 5.33999 10.8001Z" fill="#572908"/>
<path fill-rule="evenodd" clip-rule="evenodd" d="M5.39995 11.7001C4.92256 11.7001 4.46472 11.8897 4.12716 12.2273C3.78959 12.5649 3.59995 13.0227 3.59995 13.5001V15.3001C3.59995 15.6184 3.47352 15.9236 3.24848 16.1486C3.02344 16.3737 2.71821 16.5001 2.39995 16.5001C2.08169 16.5001 1.77647 16.3737 1.55142 16.1486C1.32638 15.9236 1.19995 15.6184 1.19995 15.3001V13.5001C1.19995 12.3862 1.64245 11.3179 2.4301 10.5302C3.21776 9.7426 4.28604 9.3001 5.39995 9.3001C6.51386 9.3001 7.58215 9.7426 8.3698 10.5302C9.15745 11.3179 9.59995 12.3862 9.59995 13.5001V15.3001C9.59995 15.6184 9.47352 15.9236 9.24848 16.1486C9.02344 16.3737 8.71821 16.5001 8.39995 16.5001C8.08169 16.5001 7.77647 16.3737 7.55142 16.1486C7.32638 15.9236 7.19995 15.6184 7.19995 15.3001V13.5001C7.19995 13.0227 7.01031 12.5649 6.67274 12.2273C6.33518 11.8897 5.87734 11.7001 5.39995 11.7001ZM19.74 8.4001C19.4217 8.4001 19.1165 8.27367 18.8914 8.04863C18.6664 7.82358 18.54 7.51836 18.54 7.2001C18.54 6.88184 18.6664 6.57661 18.8914 6.35157C19.1165 6.12653 19.4217 6.0001 19.74 6.0001C20.0582 6.0001 20.3634 6.12653 20.5885 6.35157C20.8135 6.57661 20.94 6.88184 20.94 7.2001C20.94 7.51836 20.8135 7.82358 20.5885 8.04863C20.3634 8.27367 20.0582 8.4001 19.74 8.4001ZM19.74 10.8001C18.7852 10.8001 17.8695 10.4208 17.1944 9.74568C16.5192 9.07055 16.14 8.15488 16.14 7.2001C16.14 6.24532 16.5192 5.32964 17.1944 4.65451C17.8695 3.97938 18.7852 3.6001 19.74 3.6001C20.6947 3.6001 21.6104 3.97938 22.2855 4.65451C22.9607 5.32964 23.34 6.24532 23.34 7.2001C23.34 8.15488 22.9607 9.07055 22.2855 9.74568C21.6104 10.4208 20.6947 10.8001 19.74 10.8001Z" fill="#572908"/>
<path fill-rule="evenodd" clip-rule="evenodd" d="M19.68 11.7003C20.1574 11.7003 20.6152 11.8899 20.9528 12.2275C21.2903 12.5651 21.48 13.0229 21.48 13.5003V15.3003C21.48 15.6186 21.6064 15.9238 21.8315 16.1488C22.0565 16.3739 22.3617 16.5003 22.68 16.5003C22.9982 16.5003 23.3035 16.3739 23.5285 16.1488C23.7536 15.9238 23.88 15.6186 23.88 15.3003V13.5003C23.88 12.3864 23.4375 11.3181 22.6498 10.5304C21.8622 9.74279 20.7939 9.30029 19.68 9.30029C18.5661 9.30029 17.4978 9.74279 16.7101 10.5304C15.9225 11.3181 15.48 12.3864 15.48 13.5003V15.3003C15.48 15.6186 15.6064 15.9238 15.8315 16.1488C16.0565 16.3739 16.3617 16.5003 16.68 16.5003C16.9982 16.5003 17.3035 16.3739 17.5285 16.1488C17.7536 15.9238 17.88 15.6186 17.88 15.3003V13.5003C17.88 13.0229 18.0696 12.5651 18.4072 12.2275C18.7448 11.8899 19.2026 11.7003 19.68 11.7003Z" fill="#572908"/>
<path fill-rule="evenodd" clip-rule="evenodd" d="M12.6 15.0001C11.8043 15.0001 11.0412 15.3162 10.4786 15.8788C9.91602 16.4414 9.59995 17.2044 9.59995 18.0001V19.8001C9.59995 20.1184 9.47352 20.4236 9.24848 20.6486C9.02344 20.8737 8.71821 21.0001 8.39995 21.0001C8.08169 21.0001 7.77647 20.8737 7.55142 20.6486C7.32638 20.4236 7.19995 20.1184 7.19995 19.8001V18.0001C7.19995 16.5679 7.76888 15.1944 8.78157 14.1817C9.79427 13.169 11.1678 12.6001 12.6 12.6001C14.0321 12.6001 15.4056 13.169 16.4183 14.1817C17.431 15.1944 18 16.5679 18 18.0001V19.8001C18 20.1184 17.8735 20.4236 17.6485 20.6486C17.4234 20.8737 17.1182 21.0001 16.8 21.0001C16.4817 21.0001 16.1765 20.8737 15.9514 20.6486C15.7264 20.4236 15.6 20.1184 15.6 19.8001V18.0001C15.6 17.2044 15.2839 16.4414 14.7213 15.8788C14.1587 15.3162 13.3956 15.0001 12.6 15.0001Z" fill="#572908"/>
<path fill-rule="evenodd" clip-rule="evenodd" d="M12.5399 11.6999C12.8582 11.6999 13.1634 11.5735 13.3885 11.3484C13.6135 11.1234 13.7399 10.8182 13.7399 10.4999C13.7399 10.1816 13.6135 9.87642 13.3885 9.65137C13.1634 9.42633 12.8582 9.2999 12.5399 9.2999C12.2217 9.2999 11.9165 9.42633 11.6914 9.65137C11.4664 9.87642 11.3399 10.1816 11.3399 10.4999C11.3399 10.8182 11.4664 11.1234 11.6914 11.3484C11.9165 11.5735 12.2217 11.6999 12.5399 11.6999ZM12.5399 14.0999C13.4947 14.0999 14.4104 13.7206 15.0855 13.0455C15.7607 12.3704 16.1399 11.4547 16.1399 10.4999C16.1399 9.54512 15.7607 8.62945 15.0855 7.95432C14.4104 7.27919 13.4947 6.8999 12.5399 6.8999C11.5852 6.8999 10.6695 7.27919 9.99436 7.95432C9.31923 8.62945 8.93994 9.54512 8.93994 10.4999C8.93994 11.4547 9.31923 12.3704 9.99436 13.0455C10.6695 13.7206 11.5852 14.0999 12.5399 14.0999Z" fill="#572908"/>
</svg>
